<?xml version="1.0" encoding="UTF-8"?>
<svg xmlns="http://www.w3.org/2000/svg" xml:space="preserve" width="84.6177mm" height="15.9056mm" version="1.1" style="shape-rendering:geometricPrecision; text-rendering:geometricPrecision; image-rendering:optimizeQuality; fill-rule:evenodd; clip-rule:evenodd"
viewBox="0 0 4592.04 863.17"
 >
 <defs>
  <style type="text/css">
   <![CDATA[
    .fil0 {fill:#0284C7}
    .fil2 {fill:#0284C7;fill-rule:nonzero}
    .fil1 {fill:gray;fill-rule:nonzero}
   ]]>
  </style>
 </defs>
 <g id="Vrstva_x0020_1">
  <metadata id="CorelCorpID_0Corel-Layer"/>
  <g id="_2448973122240">
   <path class="fil0" d="M829.34 584.8c-9.12,-18.45 -33.24,-43.13 -47.37,-55.61 -105.45,-93.22 -251.14,-113.58 -375.33,-42.32 -33.21,19.06 -89.39,62.42 -105.32,98.46 55.35,17.92 107.62,64.93 123.01,121.83 20.74,76.71 -33.48,129.02 -92.32,143.96 6.93,5.41 17.08,4.82 27.32,5.58 9.34,0.69 17.26,1.75 26.7,2.34 69.93,4.36 389.9,8.94 413.58,-7.17 -15.08,-7.83 -26.25,-8.92 -43.5,-19.17 -42.23,-25.1 -63.83,-72.46 -49.87,-125.89 14.33,-54.83 68.67,-104.55 123.1,-122.01z"/>
   <path class="fil0" d="M537.25 2.02c-105.49,14.31 -198.88,109.37 -181.94,233.39 14.31,104.75 113.19,197.04 237.09,180.21 116.69,-15.86 197.55,-119.68 182.5,-234.76 -13.84,-105.82 -114.19,-195.58 -237.65,-178.84z"/>
   <path class="fil0" d="M830.39 584.47c4.6,10.56 12.01,18.84 18.3,31.01 18.17,35.19 29.2,69.8 33.74,111.49 6.46,59.21 -2.58,108.1 -64.17,124.7 8.58,5.98 41.24,7.95 51.32,8.73 19.13,1.47 37.75,2.07 57.18,1.95 35.06,-0.21 70.35,-5.86 100.88,-15.76 141.66,-45.97 135.02,-193.8 -1.91,-256.98 -27.79,-12.82 -59.8,-21.51 -94.89,-22.12 -26.97,-0.46 -82.49,4.31 -100.45,16.98z"/>
   <path class="fil0" d="M312.17 851.87c-15.79,-6.98 -20.25,-5.24 -33.73,-15.09 -32.15,-23.47 -34.68,-73.14 -29.81,-112.24 6.96,-56 19.95,-88.41 47.75,-133.54 3.21,-5.22 1.81,-2.57 4.15,-7.47 -59.72,-22.6 -140.03,-20.82 -196.87,6.5 -41.9,20.14 -71.73,45.95 -91.34,84.35 -6.29,12.31 -11.31,28.81 -12.14,44.75 -3.67,70.43 49.93,110.94 104.52,128.15 57.3,18.08 135.94,18.9 197.33,8.44l10.14 -3.85z"/>
   <path class="fil0" d="M747.66 413c6.88,73.74 69.8,130.34 152.66,124.6 71.54,-4.95 133.45,-70.64 126.2,-151.23 -6.6,-73.38 -70.58,-130.97 -152.84,-124.49 -71.94,5.68 -133.43,71.67 -126.02,151.12z"/>
   <path class="fil0" d="M105.13 419.13c10.26,70.29 74.05,128.46 158.2,117.93 69.23,-8.67 129.81,-72.5 118.33,-156.27 -9.58,-69.88 -75.07,-130.48 -158.47,-118.21 -69.22,10.19 -130.17,73.61 -118.06,156.55z"/>
  </g>
  <path class="fil1" d="M1728.91 536.89l87.51 0 0 73.37c-23.87,30.05 -53.93,45.08 -90.17,45.08 -49.5,0 -74.25,-30.94 -74.25,-93.7l0 -213.92c0,-60.99 33.59,-94.58 97.23,-94.58 50.39,0 97.24,12.38 142.32,36.25l51.27 -99.89c-53.92,-38.01 -118.45,-57.45 -193.59,-57.45 -72.49,0 -130.82,18.56 -174.14,55.69 -43.31,37.12 -64.52,86.62 -64.52,149.38l0 236.9c0,128.18 64.52,201.54 187.4,201.54 45.97,0 100.77,-22.1 136.13,-58.34l19.45 54.81 99.89 0 0 -352.7 -224.52 0 0 117.57z"/>
  <path id="_1" class="fil1" d="M2468.78 664.18c-23.87,0 -40.66,-11.49 -51.27,-35.36l-44.2 -95.47c70.72,-27.4 118.45,-83.97 118.45,-172.37l0 -29.17c0,-54.81 -19.44,-99.89 -57.46,-134.36 -38.01,-35.36 -87.51,-53.04 -150.27,-53.04l-235.13 0 0 618.77 139.66 0 0 -223.64 41.55 7.07 53.92 122.87c35.36,78.67 76.02,102.54 143.2,102.54 24.75,0 51.27,-2.65 78.67,-7.96l0.88 -104.31c-10.6,2.65 -22.98,4.42 -38.01,4.42zm-184.75 -397.78c45.08,0 71.6,30.94 71.6,76.02l0 11.49c0,45.09 -28.29,76.02 -81.33,76.02 -23.87,0 -53.04,-4.42 -85.74,-12.38l0 -151.15 95.47 0z"/>
  <path id="_2" class="fil1" d="M2802.03 775.56c65.41,0 120.22,-18.56 164.42,-56.57 45.09,-38.01 67.18,-87.51 67.18,-149.39l0 -232.48c0,-61.88 -22.1,-111.37 -67.18,-148.5 -44.2,-38.01 -99,-56.57 -164.42,-56.57 -66.29,0 -121.1,18.56 -166.18,56.57 -44.2,37.13 -66.3,86.63 -66.3,148.5l0 232.48c0,61.88 22.1,111.38 66.3,149.39 45.08,38.01 99.89,56.57 166.18,56.57zm0 -121.98c-53.04,0 -91.05,-34.48 -91.05,-94.58l0 -211.27c0,-60.11 38.01,-94.58 91.05,-94.58 52.16,0 90.17,34.48 90.17,94.58l0 211.27c0,60.11 -38.01,94.58 -90.17,94.58z"/>
  <path id="_3" class="fil1" d="M3430.53 606.72c-20.33,28.28 -55.69,49.5 -93.7,49.5 -49.5,0 -69.83,-27.41 -69.83,-90.17l0 -421.65 -141.43 0 0 433.14c0,130.82 50.39,198 174.14,198 52.15,0 96.35,-16.79 130.82,-50.38l8.84 38.01 131.71 0 0 -618.77 -140.55 0 0 462.31z"/>
  <polygon id="_4" class="fil1" points="4058.14,144.41 3684.23,144.41 3684.23,763.18 3823.89,763.18 3823.89,533.35 4016.59,533.35 4016.59,412.25 3823.89,412.25 3823.89,266.4 4058.14,266.4 "/>
  <path id="_5" class="fil1" d="M4554.04 664.18c-23.87,0 -40.66,-11.49 -51.27,-35.36l-44.2 -95.47c70.72,-27.4 118.45,-83.97 118.45,-172.37l0 -29.17c0,-54.81 -19.44,-99.89 -57.46,-134.36 -38.01,-35.36 -87.51,-53.04 -150.27,-53.04l-235.13 0 0 618.77 139.66 0 0 -223.64 41.55 7.07 53.92 122.87c35.36,78.67 76.02,102.54 143.2,102.54 24.75,0 51.27,-2.65 78.67,-7.96l0.88 -104.31c-10.6,2.65 -22.98,4.42 -38.01,4.42zm-184.75 -397.78c45.08,0 71.6,30.94 71.6,76.02l0 11.49c0,45.09 -28.29,76.02 -81.33,76.02 -23.87,0 -53.04,-4.42 -85.74,-12.38l0 -151.15 95.47 0z"/>
  <path class="fil2" d="M1706.26 514.24l87.51 0 0 73.37c-23.87,30.05 -53.93,45.08 -90.17,45.08 -49.5,0 -74.25,-30.94 -74.25,-93.7l0 -213.92c0,-60.99 33.59,-94.58 97.23,-94.58 50.39,0 97.24,12.38 142.32,36.25l51.27 -99.89c-53.92,-38.01 -118.45,-57.45 -193.59,-57.45 -72.49,0 -130.82,18.56 -174.14,55.69 -43.31,37.12 -64.52,86.62 -64.52,149.38l0 236.9c0,128.18 64.52,201.54 187.4,201.54 45.97,0 100.77,-22.1 136.13,-58.34l19.45 54.81 99.89 0 0 -352.7 -224.52 0 0 117.57z"/>
  <path id="_1_0" class="fil2" d="M2446.13 641.53c-23.87,0 -40.66,-11.49 -51.27,-35.36l-44.2 -95.47c70.72,-27.4 118.45,-83.97 118.45,-172.37l0 -29.17c0,-54.81 -19.44,-99.89 -57.46,-134.36 -38.01,-35.36 -87.51,-53.04 -150.27,-53.04l-235.13 0 0 618.77 139.66 0 0 -223.64 41.55 7.07 53.92 122.87c35.36,78.67 76.02,102.54 143.2,102.54 24.75,0 51.27,-2.65 78.67,-7.96l0.88 -104.31c-10.6,2.65 -22.98,4.42 -38.01,4.42zm-184.75 -397.78c45.08,0 71.6,30.94 71.6,76.02l0 11.49c0,45.09 -28.29,76.02 -81.33,76.02 -23.87,0 -53.04,-4.42 -85.74,-12.38l0 -151.15 95.47 0z"/>
  <path id="_2_1" class="fil2" d="M2779.38 752.91c65.41,0 120.22,-18.56 164.42,-56.57 45.09,-38.01 67.18,-87.51 67.18,-149.39l0 -232.48c0,-61.88 -22.1,-111.37 -67.18,-148.5 -44.2,-38.01 -99,-56.57 -164.42,-56.57 -66.29,0 -121.1,18.56 -166.18,56.57 -44.2,37.13 -66.3,86.63 -66.3,148.5l0 232.48c0,61.88 22.1,111.38 66.3,149.39 45.08,38.01 99.89,56.57 166.18,56.57zm0 -121.98c-53.04,0 -91.05,-34.48 -91.05,-94.58l0 -211.27c0,-60.11 38.01,-94.58 91.05,-94.58 52.16,0 90.17,34.48 90.17,94.58l0 211.27c0,60.11 -38.01,94.58 -90.17,94.58z"/>
  <path id="_3_2" class="fil2" d="M3407.87 584.07c-20.33,28.28 -55.69,49.5 -93.7,49.5 -49.5,0 -69.83,-27.41 -69.83,-90.17l0 -421.65 -141.43 0 0 433.14c0,130.82 50.39,198 174.14,198 52.15,0 96.35,-16.79 130.82,-50.38l8.84 38.01 131.71 0 0 -618.77 -140.55 0 0 462.31z"/>
  <polygon id="_4_3" class="fil2" points="4035.48,121.76 3661.57,121.76 3661.57,740.53 3801.23,740.53 3801.23,510.7 3993.93,510.7 3993.93,389.6 3801.23,389.6 3801.23,243.75 4035.48,243.75 "/>
  <path id="_5_4" class="fil2" d="M4531.38 641.53c-23.87,0 -40.66,-11.49 -51.27,-35.36l-44.2 -95.47c70.72,-27.4 118.45,-83.97 118.45,-172.37l0 -29.17c0,-54.81 -19.44,-99.89 -57.46,-134.36 -38.01,-35.36 -87.51,-53.04 -150.27,-53.04l-235.13 0 0 618.77 139.66 0 0 -223.64 41.55 7.07 53.92 122.87c35.36,78.67 76.02,102.54 143.2,102.54 24.75,0 51.27,-2.65 78.67,-7.96l0.88 -104.31c-10.6,2.65 -22.98,4.42 -38.01,4.42zm-184.75 -397.78c45.08,0 71.6,30.94 71.6,76.02l0 11.49c0,45.09 -28.29,76.02 -81.33,76.02 -23.87,0 -53.04,-4.42 -85.74,-12.38l0 -151.15 95.47 0z"/>
 </g>
</svg>
